<svg width="230" height="60" viewBox="0 0 230 60" fill="none" xmlns="http://www.w3.org/2000/svg">
<path d="M229.761 0.00969272C229.761 0.00969272 183.372 -1.17001 179.059 22.5002C179.059 22.5002 177.702 30.3902 188.928 36.4156C188.928 36.4156 194.573 39.6249 205.926 41.1725C205.926 41.1725 207.803 38.3437 207.639 36.0351C207.639 36.0351 193.076 34.348 192.48 23.8575C192.48 23.8575 191.44 12.3522 215.186 10.7539L213.055 18.9103C213.055 18.9103 221.212 21.3205 223.241 23.1852L229.761 0.00969272Z" fill="#F40B0B"/>
<path d="M178.92 59.9716C178.92 59.9716 225.296 61.5445 229.799 37.8997C229.799 37.8997 231.22 30.0223 220.045 23.9081C220.045 23.9081 214.425 20.6608 203.085 19.0117C203.085 19.0117 201.195 21.8151 201.334 24.1365C201.334 24.1365 215.871 25.9377 216.391 36.4409C216.391 36.4409 217.33 47.9462 193.571 49.3415L195.778 41.2105C195.778 41.2105 187.635 38.7369 185.63 36.8595L178.92 59.9716Z" fill="white"/>
<path d="M8.91 40.66C5.47 40.66 2.5 39.54 0 37.3L2.73 34.03C4.79 35.73 6.88 36.58 9 36.58C9.94 36.58 10.68 36.4 11.22 36.04C11.76 35.68 12.03 35.18 12.03 34.54C12.03 33.94 11.75 33.46 11.19 33.1C10.63 32.72 9.5 32.31 7.8 31.87C6.6 31.57 5.63 31.28 4.89 31C4.15 30.7 3.44 30.31 2.76 29.83C2.1 29.35 1.61 28.75 1.29 28.03C0.99 27.29 0.84 26.41 0.84 25.39C0.84 23.49 1.52 21.96 2.88 20.8C4.26 19.64 6.03 19.06 8.19 19.06C11.17 19.06 13.77 19.95 15.99 21.73L13.59 25.21C11.61 23.83 9.79 23.14 8.13 23.14C7.27 23.14 6.6 23.32 6.12 23.68C5.66 24.02 5.43 24.47 5.43 25.03C5.43 25.71 5.72 26.22 6.3 26.56C6.88 26.9 8.1 27.31 9.96 27.79C12.24 28.39 13.92 29.16 15 30.1C16.08 31.04 16.62 32.39 16.62 34.15C16.62 36.19 15.91 37.79 14.49 38.95C13.09 40.09 11.23 40.66 8.91 40.66Z" fill="white"/>
<path d="M38.8095 37.57C36.6895 39.67 34.0295 40.72 30.8295 40.72C27.6295 40.72 24.9695 39.67 22.8495 37.57C20.7495 35.47 19.6995 32.9 19.6995 29.86C19.6995 26.84 20.7595 24.28 22.8795 22.18C25.0195 20.06 27.6895 19 30.8895 19C34.0895 19 36.7395 20.05 38.8395 22.15C40.9595 24.25 42.0195 26.82 42.0195 29.86C42.0195 32.88 40.9495 35.45 38.8095 37.57ZM26.3295 34.54C27.5295 35.82 29.0495 36.46 30.8895 36.46C32.7295 36.46 34.2395 35.83 35.4195 34.57C36.5995 33.29 37.1895 31.72 37.1895 29.86C37.1895 28.02 36.5895 26.46 35.3895 25.18C34.1895 23.9 32.6695 23.26 30.8295 23.26C28.9895 23.26 27.4795 23.9 26.2995 25.18C25.1195 26.44 24.5295 28 24.5295 29.86C24.5295 31.7 25.1295 33.26 26.3295 34.54Z" fill="white"/>
<path d="M46.1177 40.36V19.36H51.0977L56.6177 28.24L62.1377 19.36H67.1177V40.36H62.5277V26.65L56.6177 35.62H56.4977L50.6477 26.74V40.36H46.1177Z" fill="white"/>
<path d="M72.1627 40.36V19.36H88.0027V23.47H76.7527V27.73H86.6527V31.84H76.7527V36.25H88.1527V40.36H72.1627Z" fill="white"/>
<path d="M91.2403 33.25V28.87H100.48V33.25H91.2403Z" fill="white"/>
<path d="M104.506 40.36V19.36H112.696C115.976 19.36 118.656 20.36 120.736 22.36C122.816 24.34 123.856 26.84 123.856 29.86C123.856 32.86 122.806 35.36 120.706 37.36C118.626 39.36 115.956 40.36 112.696 40.36H104.506ZM109.126 36.19H112.696C114.596 36.19 116.126 35.61 117.286 34.45C118.446 33.27 119.026 31.74 119.026 29.86C119.026 28 118.436 26.48 117.256 25.3C116.096 24.12 114.576 23.53 112.696 23.53H109.126V36.19Z" fill="white"/>
<path d="M127.973 40.36V19.36H143.813V23.47H132.563V27.73H142.463V31.84H132.563V36.25H143.963V40.36H127.973Z" fill="white"/>
<path d="M154.761 40.51L146.271 19.36H151.371L156.861 34.15L162.351 19.36H167.331L158.841 40.51H154.761Z" fill="white"/>
</svg>
