<svg width="52" height="60" viewBox="0 0 52 60" fill="none" xmlns="http://www.w3.org/2000/svg">
<path d="M51.7612 0.00969263C51.7612 0.00969263 5.37225 -1.17001 1.05925 22.5002C1.05925 22.5002 -0.297761 30.3902 10.9282 36.4156C10.9282 36.4156 16.5732 39.6249 27.9262 41.1725C27.9262 41.1725 29.8033 38.3437 29.6393 36.0351C29.6393 36.0351 15.0762 34.348 14.4802 23.8575C14.4802 23.8575 13.4402 12.3522 37.1862 10.7539L35.0552 18.9103C35.0552 18.9103 43.2122 21.3205 45.2412 23.1852L51.7612 0.00969263Z" fill="#F40B0B"/>
<path d="M51.3086 37.8001L51.3069 37.8106C50.2132 43.5459 46.5818 47.7753 41.6805 50.9021C36.7709 54.0341 30.6173 56.0381 24.5677 57.3132C18.5232 58.5872 12.6133 59.1274 8.21144 59.3486C6.01143 59.4591 4.19031 59.4899 2.92019 59.493C2.36304 59.4944 1.91201 59.4905 1.58166 59.4856L7.90408 37.7086C8.43974 38.0747 9.11905 38.4378 9.84711 38.7831C10.9106 39.2876 12.1312 39.7785 13.281 40.2075C14.4322 40.637 15.5192 41.0071 16.3181 41.2697C16.6602 41.3821 16.9497 41.4749 17.1692 41.5444L15.0884 49.2105L14.9063 49.8814L15.6002 49.8407C27.5519 49.1388 33.4066 45.8876 36.2628 42.7018C37.6896 41.1104 38.3497 39.5545 38.6506 38.385C38.8008 37.8014 38.8613 37.3154 38.8838 36.9706C38.8951 36.7982 38.8969 36.6609 38.8956 36.5641C38.895 36.5157 38.8936 36.4774 38.8923 36.4499C38.8917 36.4361 38.891 36.4251 38.8905 36.4167L38.8901 36.4108C38.6142 30.8895 34.6461 27.6925 30.8826 25.8987C28.9927 24.9979 27.1244 24.4345 25.7315 24.0962C25.0341 23.9268 24.4535 23.8133 24.0458 23.7419C23.9676 23.7282 23.8958 23.7161 23.8307 23.7054C23.8722 22.7734 24.2224 21.7599 24.6117 20.9123C24.8308 20.4351 25.0545 20.027 25.2233 19.7385C25.2636 19.6698 25.3006 19.608 25.3336 19.5538C30.808 20.3723 34.9087 21.5608 37.6478 22.5487C39.044 23.0522 40.0867 23.5037 40.7773 23.8276C41.1226 23.9896 41.3799 24.1197 41.5494 24.2084C41.6342 24.2527 41.697 24.2867 41.7379 24.3093C41.7583 24.3205 41.7733 24.3289 41.7828 24.3342L41.7929 24.34L41.7948 24.341L41.7947 24.3412L41.8049 24.3468C47.2981 27.3522 49.6499 30.7624 50.6453 33.3748C51.145 34.6861 51.3078 35.8092 51.347 36.5981C51.3665 36.9927 51.3552 37.3034 51.3396 37.5119C51.3317 37.6162 51.3229 37.6948 51.3163 37.7454C51.3149 37.7559 51.3137 37.7651 51.3126 37.7732C51.311 37.7846 51.3096 37.7936 51.3086 37.8001Z" fill="white" stroke="black"/>
</svg>
